<svg width="201" height="88" viewBox="0 0 201 88" fill="none" xmlns="http://www.w3.org/2000/svg">
<path d="M0.646447 83.6464C0.451184 83.8417 0.451184 84.1583 0.646447 84.3536L3.82843 87.5355C4.02369 87.7308 4.34027 87.7308 4.53553 87.5355C4.7308 87.3403 4.7308 87.0237 4.53553 86.8284L1.70711 84L4.53553 81.1716C4.7308 80.9763 4.7308 80.6597 4.53553 80.4645C4.34027 80.2692 4.02369 80.2692 3.82843 80.4645L0.646447 83.6464ZM154.244 1.5C170.682 1.5 184.658 6.66203 192.559 14.3276C196.505 18.1557 198.921 22.5915 199.408 27.313C199.895 32.0294 198.463 37.0934 194.598 42.1982C186.847 52.4335 169.35 62.7728 138.277 70.5462C107.226 78.3141 62.6994 83.5 1 83.5V84.5C62.7473 84.5 107.362 79.3109 138.52 71.5163C169.656 63.7272 187.433 53.3165 195.395 42.8018C199.386 37.5316 200.92 32.2206 200.403 27.2104C199.887 22.2054 197.33 17.563 193.255 13.6099C185.116 5.71297 170.859 0.5 154.244 0.5V1.5Z" fill="#F9E1D0"/>
</svg>
