<svg width="284" height="80" viewBox="0 0 284 80" fill="none" xmlns="http://www.w3.org/2000/svg">
<path d="M0.179908 73.8659C-0.0322307 74.0427 -0.0608926 74.358 0.115889 74.5701L2.99672 78.0271C3.1735 78.2392 3.48879 78.2679 3.70092 78.0911C3.91306 77.9143 3.94172 77.599 3.76494 77.3869L1.2042 74.314L4.27709 71.7533C4.48923 71.5765 4.51789 71.2612 4.34111 71.0491C4.16432 70.8369 3.84904 70.8083 3.6369 70.9851L0.179908 73.8659ZM249 1C264.263 0.99997 276.134 7.37439 280.528 16.3219C282.719 20.7846 283.073 25.9201 281.043 31.305C279.009 36.7 274.573 42.3705 267.141 47.8474C252.271 58.8056 225.51 68.9149 182.491 74.465C139.483 80.0136 80.2717 80.9999 0.545268 73.7521L0.454732 74.7479C80.2283 82.0001 139.517 81.0175 182.619 75.4568C225.709 69.8974 252.666 59.7567 267.734 48.6524C275.271 43.0981 279.858 37.2842 281.979 31.6577C284.103 26.0211 283.742 20.598 281.425 15.8811C276.804 6.46926 264.487 -3.0756e-05 249 0V1Z" fill="#F9E1D0"/>
</svg>
